<svg width="573" height="207" viewBox="0 0 573 207" fill="none" xmlns="http://www.w3.org/2000/svg">
<path d="M35.2994 189.461C35.3759 189.528 35.3586 189.67 35.2476 189.889C35.1588 190.064 35.054 190.162 34.9332 190.184L13.0328 189.35C11.9578 189.3 11.1564 189.389 10.6284 189.616C10.0786 189.833 9.63166 190.28 9.28764 190.958C9.25435 191.024 9.17207 191.023 9.04079 190.957C8.90951 190.89 8.86051 190.824 8.8938 190.758L9.55916 189.528C9.91364 188.937 10.1852 188.456 10.3739 188.084C10.7734 187.297 11.1843 186.432 11.6066 185.491L12.2563 184.129C12.2895 184.063 12.3718 184.064 12.5031 184.13C12.6344 184.197 12.6834 184.263 12.6501 184.329C12.3172 184.985 12.1441 185.516 12.1308 185.922C12.1286 186.306 12.3135 186.592 12.6854 186.781C13.0136 186.947 13.4629 187.038 14.0334 187.052L33.3839 187.706L34.3601 189.687L25.8085 179.944L26.7802 179.818L35.2994 189.461ZM24.4743 160.039C24.4965 159.995 24.5732 160.007 24.7045 160.073C24.8357 160.14 24.8903 160.195 24.8681 160.239C24.4908 160.983 24.3603 161.728 24.4768 162.475C24.5932 163.221 25.0219 164.03 25.763 164.901L39.7106 180.764C39.787 180.83 39.7697 180.973 39.6587 181.192C39.57 181.367 39.4652 181.465 39.3444 181.486L17.4605 180.62C16.4075 180.581 15.606 180.67 15.0562 180.886C14.5064 181.103 14.0705 181.528 13.7487 182.162C13.7154 182.228 13.6331 182.228 13.5019 182.161C13.3706 182.094 13.3216 182.028 13.3549 181.963L14.0202 180.732C14.3525 180.185 14.613 179.726 14.8016 179.354C15.1124 178.742 15.4123 178.096 15.7015 177.417L16.1181 176.515C16.1514 176.449 16.2337 176.449 16.3649 176.516C16.4962 176.583 16.5452 176.649 16.5119 176.714C16.3122 177.108 16.2117 177.415 16.2104 177.634C16.1873 177.843 16.2742 177.997 16.4711 178.097C16.7336 178.23 17.3915 178.316 18.4445 178.355L37.8117 178.976L38.7878 180.956L25.2655 165.557C24.8948 165.149 24.5782 164.878 24.3156 164.745C23.8343 164.501 23.3788 164.531 22.9491 164.836C22.5306 165.119 22.1049 165.687 21.6721 166.54C21.6388 166.606 21.5565 166.605 21.4252 166.539C21.294 166.472 21.245 166.406 21.2783 166.34L22.0102 164.979C22.4313 164.257 22.7916 163.601 23.0912 163.01C23.3132 162.572 23.5465 162.058 23.7913 161.467L24.4743 160.039ZM20.8553 174.089C20.3977 173.527 19.983 173.152 19.611 172.963C18.9765 172.641 18.4206 172.951 17.9435 173.892C17.9102 173.957 17.8279 173.957 17.6966 173.89C17.5653 173.824 17.5163 173.758 17.5496 173.692L17.9653 172.954C18.231 172.538 18.4859 172.09 18.73 171.609C18.952 171.171 19.1853 170.657 19.4301 170.066L20.0798 168.703C20.102 168.66 20.1787 168.671 20.31 168.738C20.4413 168.804 20.4958 168.859 20.4736 168.903C20.0963 169.647 19.9714 170.381 20.0989 171.106C20.2156 171.798 20.6555 172.585 21.4185 173.467L26.8634 179.654L25.8917 179.78L20.8553 174.089Z" fill="white"/>
<path d="M50.3839 162.403C50.3564 162.444 50.2817 162.423 50.1598 162.34C50.038 162.258 49.9908 162.196 50.0183 162.156C50.5413 161.384 50.869 160.791 51.0014 160.377C51.1476 159.943 51.1198 159.568 50.9181 159.254C50.7098 158.905 50.301 158.524 49.6917 158.111L35.5869 148.553C34.9776 148.14 34.4826 147.908 34.1019 147.858C33.735 147.787 33.3769 147.9 33.0277 148.197C32.6718 148.46 32.2324 148.977 31.7095 149.749C31.6819 149.789 31.6072 149.768 31.4854 149.686C31.3635 149.603 31.3164 149.541 31.3439 149.501L39.6429 137.254C39.7667 137.071 39.9201 137.042 40.1028 137.166L43.8912 139.644C43.9521 139.685 43.9515 139.774 43.8892 139.91C43.8204 140.011 43.7555 140.041 43.6946 140C42.5769 139.331 41.524 139.092 40.5359 139.282C39.5275 139.458 38.693 140.034 38.0324 141.008L36.7731 142.867C36.2914 143.577 35.9945 144.147 35.8824 144.575C35.75 144.989 35.7676 145.356 35.9353 145.677C36.1167 145.978 36.4918 146.321 37.0604 146.707L50.8911 156.079C51.4394 156.451 51.8971 156.672 52.264 156.743C52.6243 156.779 52.9654 156.67 53.2871 156.414C53.6089 156.157 54.0037 155.684 54.4717 154.994L56.1232 152.557C56.7838 151.582 56.9891 150.535 56.739 149.418C56.4889 148.3 55.8302 147.216 54.7631 146.167C54.7224 146.139 54.7297 146.085 54.7847 146.004C54.826 145.943 54.8807 145.906 54.9489 145.893C55.0105 145.846 55.0514 145.829 55.0717 145.843C56.2273 146.893 57.5058 147.892 58.9072 148.842C59.0696 148.952 59.164 149.075 59.1902 149.212C59.2098 149.314 59.1577 149.456 59.0338 149.639L50.3839 162.403ZM50.7796 146.535C49.886 145.929 49.0949 145.719 48.4062 145.905C47.7313 146.07 47.0498 146.66 46.3617 147.675L43.265 152.245L42.6253 151.811L45.7839 147.15C46.4445 146.175 46.7499 145.375 46.7002 144.748C46.6643 144.102 46.2605 143.517 45.4887 142.994C45.4481 142.966 45.4691 142.892 45.5517 142.77C45.6342 142.648 45.6958 142.601 45.7364 142.628L48.1834 144.331C48.7724 144.73 49.226 145.023 49.5444 145.209L51.0274 146.169C51.068 146.197 51.047 146.272 50.9644 146.393C50.8819 146.515 50.8203 146.562 50.7796 146.535Z" fill="white"/>
<path d="M74.161 114.133L80.95 107.132L81.6577 107.459L74.4332 114.909L74.161 114.133ZM94.3187 108.306C94.387 108.235 94.474 108.251 94.5796 108.354C94.6853 108.456 94.704 108.543 94.6357 108.613C94.3112 108.948 93.7897 109.45 93.0713 110.121C92.3529 110.791 91.84 111.285 91.5326 111.602C91.1569 111.989 90.6963 112.499 90.1508 113.132C89.6395 113.73 89.2387 114.179 88.9483 114.478C88.88 114.548 88.793 114.532 88.6873 114.43C88.5817 114.327 88.563 114.241 88.6313 114.17C89.2803 113.501 89.6798 112.966 89.8298 112.565C89.9968 112.146 89.9219 111.782 89.6048 111.475C89.3407 111.219 88.8683 110.966 88.1879 110.716L70.1104 104.566L69.9319 103.111L77.0878 119.995C77.4475 120.822 77.8211 121.424 78.2085 121.8C79.2477 122.807 80.6041 122.448 82.2778 120.722C82.3632 120.634 82.4588 120.641 82.5644 120.744C82.6701 120.846 82.6803 120.942 82.5949 121.03C82.2874 121.347 81.8258 121.787 81.2099 122.352C80.5256 122.987 79.9444 123.551 79.4662 124.045C79.0221 124.502 78.5274 125.048 77.9819 125.681C77.5047 126.243 77.0954 126.701 76.7538 127.053C76.6684 127.141 76.5729 127.134 76.4672 127.031C76.3615 126.929 76.3514 126.834 76.4368 126.746C76.915 126.252 77.2283 125.753 77.3767 125.248C77.5245 124.708 77.5147 124.066 77.3471 123.322C77.179 122.544 76.834 121.543 76.312 120.319L68.5613 101.987C68.5426 101.901 68.576 101.813 68.6614 101.725C68.7468 101.637 68.8244 101.61 68.8944 101.644L88.0702 108.141C89.9542 108.806 91.3301 109.15 92.1979 109.171C93.0481 109.175 93.755 108.887 94.3187 108.306Z" fill="white"/>
<path d="M116.708 90.131C116.231 90.5169 114.66 90.4473 111.994 89.9223C109.331 89.3628 105.899 88.4169 101.696 87.0846L102.904 85.3018C106.492 86.3426 109.38 87.0828 111.566 87.5224C113.756 87.9275 115.52 88.0784 116.856 87.9749C118.193 87.8715 119.271 87.4879 120.091 86.8242C120.148 86.7779 120.223 86.812 120.316 86.9264C120.409 87.0408 120.426 87.1212 120.369 87.1675L116.708 90.131ZM94.9596 78.0022C96.4661 76.7828 97.9071 76.1845 99.2828 76.2073C100.658 76.2301 101.809 76.8136 102.735 77.9577C103.553 78.9684 104.007 80.1325 104.095 81.45C104.167 82.7485 103.899 84.0547 103.289 85.3686C102.684 86.6479 101.809 87.7507 100.664 88.6768C100.55 88.7694 100.098 89.0881 99.3078 89.6328L104.564 96.1259C105.042 96.7171 105.447 97.0998 105.777 97.2742C106.108 97.4486 106.473 97.4522 106.875 97.2852C107.295 97.1027 107.868 96.7182 108.592 96.1316C108.65 96.0853 108.725 96.1194 108.817 96.2338C108.91 96.3482 108.927 96.4286 108.87 96.4749C108.279 96.9534 107.804 97.322 107.445 97.5808L105.449 99.1497L103.527 100.753C103.199 101.05 102.72 101.453 102.091 101.962C102.053 101.993 101.988 101.951 101.895 101.837C101.802 101.722 101.775 101.65 101.813 101.619C102.538 101.032 103.033 100.552 103.299 100.179C103.55 99.787 103.634 99.4034 103.551 99.0284C103.469 98.6533 103.196 98.1798 102.733 97.6077L92.0131 84.3641C91.5501 83.792 91.1438 83.4265 90.7942 83.2675C90.4637 83.0932 90.0882 83.0973 89.6678 83.2797C89.251 83.4277 88.6803 83.795 87.9556 84.3815C87.8984 84.4278 87.8235 84.3938 87.7309 84.2794C87.6383 84.1649 87.6206 84.0846 87.6778 84.0383L89.1026 82.9324C89.9343 82.3222 90.5981 81.8165 91.0939 81.4152C91.5135 81.0756 91.8967 80.7497 92.2436 80.4373C92.5904 80.125 92.8801 79.859 93.1126 79.6392C93.7909 78.9955 94.4066 78.4498 94.9596 78.0022ZM101.462 80.3616C100.258 78.8742 99.0597 78.0764 97.8675 77.9683C96.6944 77.8448 95.4785 78.2923 94.2199 79.3111C93.4762 79.913 93.0694 80.4633 92.9994 80.9618C92.9295 81.4603 93.2264 82.1195 93.8901 82.9395L98.7522 88.9463C99.2716 88.6522 99.865 88.235 100.532 87.6947C102.02 86.4908 102.816 85.31 102.92 84.1522C103.044 82.9791 102.558 81.7156 101.462 80.3616Z" fill="white"/>
<path d="M128.347 81.7084C128.306 81.7349 128.245 81.6862 128.166 81.5624C128.086 81.4385 128.067 81.3633 128.108 81.3368C128.893 80.8332 129.428 80.4172 129.712 80.0887C130.018 79.7469 130.14 79.3917 130.078 79.0232C130.024 78.6207 129.798 78.1098 129.4 77.4904L120.197 63.1515C119.799 62.5321 119.435 62.1242 119.105 61.928C118.796 61.7184 118.422 61.6813 117.984 61.8166C117.554 61.918 116.946 62.2205 116.162 62.7241C116.121 62.7506 116.06 62.7019 115.981 62.578C115.901 62.4541 115.882 62.3789 115.923 62.3524L128.373 54.3616C128.559 54.2423 128.711 54.2756 128.831 54.4614L131.338 58.2309C131.377 58.2928 131.342 58.3739 131.231 58.474C131.128 58.5403 131.057 58.5425 131.017 58.4805C130.253 57.426 129.379 56.7916 128.396 56.5771C127.4 56.342 126.406 56.5425 125.415 57.1786L123.526 58.3911C122.803 58.855 122.306 59.2614 122.035 59.6106C121.75 59.9391 121.621 60.284 121.649 60.6451C121.697 60.993 121.907 61.456 122.278 62.0341L131.303 76.0943C131.661 76.6518 131.994 77.0353 132.304 77.2448C132.62 77.4205 132.977 77.4539 133.374 77.3451C133.77 77.2363 134.32 76.9566 135.022 76.5061L137.499 74.9158C138.49 74.2797 139.091 73.3987 139.301 72.2726C139.511 71.1466 139.332 69.8913 138.764 68.5068C138.737 68.4655 138.766 68.4183 138.848 68.3653C138.91 68.3256 138.975 68.3131 139.043 68.3279C139.118 68.3088 139.162 68.3095 139.175 68.3302C139.824 69.7502 140.606 71.1725 141.521 72.5971C141.627 72.7622 141.665 72.9126 141.635 73.0482C141.613 73.1499 141.509 73.2604 141.323 73.3796L128.347 81.7084ZM134.957 67.2769C134.374 66.3684 133.73 65.8639 133.024 65.7631C132.338 65.6491 131.48 65.9234 130.447 66.586L125.802 69.5677L125.384 68.9173L130.123 65.876C131.114 65.2399 131.71 64.6242 131.911 64.0288C132.132 63.4202 131.991 62.7236 131.488 61.939C131.461 61.8977 131.51 61.8373 131.634 61.7578C131.757 61.6783 131.833 61.6592 131.859 61.7005L133.438 64.2289C133.823 64.8276 134.124 65.2752 134.344 65.5717L135.329 67.0383C135.355 67.0796 135.307 67.14 135.183 67.2196C135.059 67.2991 134.984 67.3182 134.957 67.2769Z" fill="white"/>
<path d="M180.482 54.221C177.992 55.2604 175.61 55.6695 173.338 55.4482C171.088 55.2174 169.122 54.4562 167.44 53.1645C165.758 51.8728 164.492 50.2082 163.641 48.1705C162.724 45.9744 162.481 43.8298 162.91 41.7366C163.329 39.6208 164.317 37.7198 165.873 36.0337C167.451 34.338 169.441 32.9893 171.84 31.9877C173.04 31.4868 174.22 31.1276 175.378 30.9098C176.537 30.6921 177.557 30.6519 178.438 30.7891C178.657 30.804 178.792 30.8408 178.843 30.8992C178.894 30.9577 178.988 31.1181 179.124 31.3803L181.204 35.2176C181.232 35.2855 181.183 35.3591 181.057 35.4384C180.953 35.5083 180.871 35.5027 180.81 35.4216C178.219 32.1433 175.09 31.2695 171.422 32.8004C169.633 33.5469 168.185 34.6301 167.076 36.0499C165.98 37.4376 165.325 39.0535 165.111 40.8974C164.911 42.7092 165.221 44.6 166.043 46.5697C166.847 48.4941 167.999 50.14 169.5 51.5073C171.001 52.8746 172.755 53.7642 174.761 54.1763C176.781 54.5563 178.922 54.2738 181.186 53.3288C182.794 52.6579 183.798 51.8798 184.2 50.9944C184.592 50.0865 184.471 48.874 183.838 47.3571C183.347 46.1798 182.927 45.3978 182.58 45.0112C182.246 44.5924 181.785 44.4125 181.198 44.4713C180.634 44.5208 179.718 44.8101 178.45 45.3392C178.314 45.3959 178.208 45.3337 178.133 45.1526C178.104 45.0847 178.092 45.0233 178.096 44.9686C178.113 44.8818 178.144 44.8289 178.189 44.81C180.002 44.1862 181.452 43.6474 182.539 43.1939C183.603 42.7497 184.71 42.248 185.859 41.6887C185.904 41.6698 185.952 41.6896 186.003 41.7481C186.067 41.7744 186.109 41.8103 186.128 41.8555C186.194 42.014 186.17 42.1169 186.057 42.1641C185.482 42.3777 185.118 42.6224 184.968 42.898C184.807 43.151 184.802 43.552 184.951 44.1011C185.101 44.6501 185.445 45.5699 185.984 46.8604C186.409 47.8793 186.745 48.5896 186.993 48.9914C187.263 49.3838 187.421 49.6365 187.469 49.7497C187.525 49.8856 187.54 49.9856 187.514 50.0498C187.488 50.114 187.405 50.2018 187.265 50.3132C184.758 52.0773 182.497 53.3799 180.482 54.221Z" fill="white"/>
<path d="M200.192 46.4261C200.145 46.4398 200.101 46.3759 200.06 46.2346C200.019 46.0932 200.022 46.0157 200.069 46.002C200.964 45.7417 201.595 45.4945 201.961 45.2602C202.351 45.0192 202.569 44.7132 202.614 44.3422C202.676 43.9409 202.604 43.3869 202.399 42.6802L197.642 26.3194C197.436 25.6126 197.203 25.1183 196.942 24.8365C196.705 24.5478 196.357 24.4062 195.899 24.4117C195.458 24.3868 194.789 24.5045 193.894 24.7648C193.847 24.7785 193.803 24.7146 193.762 24.5733C193.721 24.4319 193.724 24.3544 193.771 24.3407L207.976 20.2103C208.188 20.1487 208.325 20.2239 208.386 20.4359L209.721 24.7617C209.741 24.8324 209.684 24.9001 209.55 24.9647C209.432 24.999 209.363 24.9807 209.342 24.9101C208.909 23.6821 208.251 22.8258 207.369 22.3413C206.48 21.8332 205.471 21.7435 204.34 22.0723L202.184 22.6991C201.36 22.9388 200.768 23.1876 200.409 23.4454C200.042 23.6796 199.821 23.9738 199.745 24.328C199.693 24.6754 199.763 25.1788 199.955 25.8385L204.619 41.8813C204.804 42.5173 205.015 42.9797 205.253 43.2684C205.507 43.5267 205.839 43.66 206.25 43.6682C206.662 43.6763 207.268 43.564 208.069 43.3311L210.896 42.5091C212.026 42.1803 212.852 41.5059 213.373 40.4857C213.894 39.4656 214.079 38.2111 213.927 36.7223C213.913 36.6752 213.953 36.6379 214.048 36.6105C214.118 36.59 214.184 36.5964 214.245 36.6298C214.322 36.6328 214.364 36.6461 214.371 36.6697C214.591 38.2154 214.937 39.8011 215.41 41.4265C215.464 41.615 215.458 41.7701 215.392 41.8917C215.341 41.9829 215.21 42.0593 214.998 42.121L200.192 46.4261ZM210.625 34.463C210.324 33.4264 209.849 32.7597 209.201 32.4628C208.576 32.159 207.675 32.1784 206.497 32.5209L201.196 34.0621L200.98 33.32L206.387 31.748C207.518 31.4192 208.264 30.9979 208.625 30.4839C209.01 29.9632 209.073 29.2552 208.813 28.36C208.799 28.3129 208.863 28.2688 209.004 28.2277C209.145 28.1866 209.223 28.1896 209.237 28.2367L210.034 31.1092C210.232 31.7924 210.395 32.3073 210.521 32.6538L211.049 34.3397C211.063 34.3868 210.999 34.4309 210.858 34.472C210.717 34.5131 210.639 34.5101 210.625 34.463Z" fill="white"/>
<path d="M228.749 16.1345C227.252 16.4003 226.185 16.9882 225.549 17.8983C224.937 18.8042 224.627 20.2171 224.619 22.1372C224.628 22.1855 224.56 22.2225 224.415 22.2482C224.294 22.2696 224.229 22.2562 224.221 22.2079C224.163 21.3211 224.07 20.1665 223.942 18.744C223.815 17.3215 223.689 16.26 223.564 15.5595C223.543 15.4387 223.593 15.3676 223.713 15.3462C223.858 15.3205 223.941 15.368 223.963 15.4888C224.057 16.0202 224.757 16.1702 226.061 15.9388C228.151 15.6426 230.585 15.2481 233.363 14.7553C234.789 14.5024 236.294 14.2104 237.88 13.8792L240.337 13.4058C241.207 13.2515 241.836 13.0775 242.225 12.8839C242.639 12.686 242.874 12.3951 242.93 12.0113C242.937 11.9104 243.001 11.8493 243.122 11.8278C243.243 11.8064 243.312 11.844 243.329 11.9406C243.381 12.654 243.497 13.7297 243.677 15.1678C243.858 16.6059 244.027 17.7718 244.186 18.6656C244.194 18.7139 244.126 18.7509 243.981 18.7766C243.836 18.8023 243.759 18.791 243.751 18.7427C243.344 16.8714 242.724 15.6235 241.891 14.9989C241.053 14.3502 239.825 14.1694 238.206 14.4566C237.119 14.6495 236.355 14.8349 235.913 15.013C235.471 15.191 235.194 15.4521 235.08 15.7961C234.967 16.1401 234.977 16.6866 235.11 17.4354L238.073 34.1393C238.206 34.8882 238.387 35.4167 238.616 35.7249C238.845 36.033 239.212 36.2047 239.717 36.2397C240.221 36.2748 240.993 36.2002 242.032 36.0159C242.104 36.003 242.153 36.0691 242.179 36.214C242.205 36.3589 242.181 36.4378 242.109 36.4507C241.312 36.5921 240.669 36.6936 240.182 36.7552L237.349 37.2204L234.638 37.7388C234.159 37.8487 233.497 37.9786 232.652 38.1286C232.603 38.1372 232.566 38.069 232.541 37.9241C232.515 37.7791 232.526 37.7024 232.574 37.6938C233.613 37.5095 234.363 37.3141 234.825 37.1076C235.287 36.9011 235.572 36.6138 235.681 36.2456C235.81 35.849 235.81 35.2883 235.682 34.5636L232.705 17.7872C232.572 17.0384 232.396 16.5341 232.175 16.2742C231.95 15.9902 231.602 15.8526 231.13 15.8616C230.654 15.8464 229.86 15.9374 228.749 16.1345Z" fill="white"/>
<path d="M262.649 11.5408C261.131 11.6351 260.004 12.0985 259.269 12.9307C258.559 13.7615 258.091 15.1302 257.865 17.0369C257.868 17.0859 257.796 17.115 257.649 17.1241C257.527 17.1317 257.464 17.111 257.461 17.062C257.504 16.1745 257.543 15.0168 257.577 13.589C257.611 12.1612 257.606 11.0922 257.562 10.3821C257.555 10.2597 257.612 10.1947 257.734 10.1871C257.881 10.1779 257.959 10.2346 257.966 10.357C258 10.8957 258.678 11.1239 260 11.0417C262.11 10.9843 264.573 10.8681 267.389 10.693C268.834 10.6032 270.363 10.4836 271.976 10.3341L274.471 10.1422C275.353 10.0874 275.998 9.98581 276.406 9.8375C276.839 9.68767 277.106 9.4253 277.205 9.0504C277.224 8.95094 277.294 8.8974 277.417 8.88979C277.539 8.88218 277.603 8.92734 277.609 9.02529C277.58 9.73995 277.574 10.8219 277.59 12.2711C277.606 13.7204 277.643 14.898 277.699 15.804C277.702 15.853 277.63 15.882 277.483 15.8911C277.336 15.9003 277.261 15.8804 277.258 15.8314C277.066 13.926 276.591 12.6159 275.834 11.901C275.075 11.1616 273.876 10.8429 272.235 10.9448C271.133 11.0133 270.353 11.111 269.893 11.2379C269.434 11.3647 269.129 11.5927 268.977 11.9216C268.826 12.2506 268.773 12.7946 268.821 13.5537L269.873 30.4858C269.92 31.2449 270.04 31.7905 270.233 32.1226C270.426 32.4548 270.771 32.6669 271.268 32.7589C271.765 32.8508 272.541 32.8641 273.593 32.7987C273.667 32.7941 273.708 32.8653 273.717 33.0122C273.727 33.1591 273.694 33.2348 273.621 33.2394C272.813 33.2896 272.163 33.3177 271.672 33.3237L268.805 33.465L266.052 33.673C265.564 33.7279 264.892 33.7821 264.035 33.8353C263.986 33.8384 263.957 33.7664 263.947 33.6195C263.938 33.4726 263.958 33.3976 264.007 33.3946C265.06 33.3291 265.828 33.22 266.31 33.0671C266.792 32.9142 267.108 32.661 267.258 32.3076C267.431 31.9281 267.495 31.3711 267.449 30.6365L266.392 13.6309C266.345 12.8719 266.226 12.3507 266.037 12.0676C265.845 11.7599 265.515 11.5838 265.045 11.5393C264.574 11.4702 263.775 11.4707 262.649 11.5408Z" fill="white"/>
<path d="M296.398 30.2094C296.374 30.9695 296.43 31.5236 296.566 31.8716C296.702 32.2197 296.976 32.4617 297.389 32.5978C297.826 32.7346 298.511 32.8181 299.443 32.8482C299.516 32.8506 299.551 32.9253 299.546 33.0724C299.541 33.2196 299.502 33.2919 299.428 33.2896C298.693 33.2658 298.105 33.2346 297.664 33.1958L295.054 33.0747L292.515 33.0295C292.073 33.0398 291.472 33.0326 290.711 33.0081C290.638 33.0057 290.603 32.931 290.608 32.7838C290.613 32.6367 290.652 32.5643 290.726 32.5667C291.657 32.5968 292.334 32.5573 292.755 32.4481C293.2 32.3398 293.502 32.1163 293.66 31.7778C293.843 31.4155 293.947 30.8666 293.971 30.131L294.521 13.1015C294.544 12.3658 294.476 11.8236 294.315 11.4748C294.179 11.1267 293.893 10.8843 293.455 10.7474C293.043 10.5869 292.371 10.4915 291.439 10.4614C291.366 10.4591 291.332 10.3843 291.336 10.2372C291.341 10.0901 291.38 10.0177 291.454 10.0201L293.255 10.115C294.283 10.1973 295.128 10.2492 295.79 10.2706C296.526 10.2943 297.409 10.2983 298.441 10.2825L300.171 10.3016C300.244 10.3039 300.279 10.3787 300.274 10.5258C300.269 10.6729 300.23 10.7453 300.157 10.7429C299.249 10.7136 298.573 10.7654 298.126 10.8983C297.68 11.0312 297.378 11.2791 297.219 11.6422C297.061 11.9807 296.97 12.5178 296.946 13.2534L296.398 30.2094Z" fill="white"/>
<path d="M317.012 12.3061L317.841 12.4909L315.453 30.4012C315.284 31.6657 315.382 32.6069 315.745 33.2245C316.136 33.8211 316.829 34.1859 317.827 34.3188C317.899 34.3286 317.926 34.4064 317.907 34.5523C317.887 34.6982 317.841 34.7663 317.768 34.7566C317.16 34.6755 316.7 34.6017 316.387 34.5353L314.568 34.2556L312.703 34.0441C312.359 34.023 311.859 33.9687 311.202 33.8812C311.154 33.8747 311.139 33.7985 311.158 33.6526C311.178 33.5067 311.212 33.437 311.261 33.4434C312.306 33.5829 313.084 33.4142 313.593 32.9376C314.105 32.4366 314.445 31.5539 314.614 30.2893L317.012 12.3061ZM332.41 37.1542C332.404 37.2028 332.338 37.2312 332.213 37.2393C332.088 37.2474 332.005 37.2239 331.963 37.1688L317.892 14.6139C317.24 13.5617 316.61 12.8095 316.002 12.3572C315.422 11.8838 314.816 11.6049 314.183 11.5206C314.11 11.5109 314.084 11.4331 314.103 11.2872C314.123 11.1413 314.169 11.0732 314.242 11.0829L315.587 11.2993C315.875 11.3625 316.275 11.4282 316.785 11.4963C317.32 11.5676 317.76 11.6138 318.104 11.6349C318.447 11.656 318.716 11.6795 318.911 11.7054C319.081 11.7281 319.208 11.7946 319.293 11.9048C319.405 11.994 319.516 12.182 319.626 12.469C319.859 12.9456 320.108 13.3995 320.372 13.8308L332.575 33.6864L332.41 37.1542ZM332.41 37.1542L331.722 35.9115L334.134 17.8188C334.303 16.5543 334.205 15.6132 333.842 14.9955C333.503 14.3811 332.835 14.0074 331.838 13.8745C331.79 13.868 331.775 13.7918 331.795 13.6459C331.814 13.5 331.848 13.4303 331.897 13.4367L333.315 13.6629C334.038 13.8088 334.63 13.9125 335.092 13.9741C335.53 14.0325 336.141 14.0892 336.926 14.1443L338.426 14.3073C338.499 14.317 338.526 14.3948 338.506 14.5407C338.487 14.6866 338.441 14.7547 338.368 14.745C337.346 14.6088 336.568 14.7896 336.031 15.2873C335.494 15.785 335.142 16.6662 334.973 17.9307L332.41 37.1542Z" fill="white"/>
<path d="M358.736 43.0769C356.126 42.3909 353.985 41.2702 352.314 39.7148C350.666 38.1656 349.566 36.3672 349.014 34.3194C348.461 32.2717 348.466 30.1801 349.027 28.0446C349.632 25.7431 350.74 23.8909 352.352 22.4881C353.97 21.0616 355.909 20.1507 358.169 19.7555C360.453 19.3664 362.852 19.5025 365.367 20.1635C366.625 20.4941 367.78 20.9245 368.833 21.4549C369.886 21.9853 370.721 22.5726 371.338 23.2168C371.502 23.3616 371.587 23.4727 371.592 23.5501C371.597 23.6275 371.574 23.8117 371.523 24.1027L370.847 28.4147C370.828 28.4858 370.744 28.5146 370.596 28.5009C370.471 28.4934 370.409 28.4391 370.41 28.338C370.341 24.1598 368.385 21.5656 364.541 20.5553C362.667 20.0626 360.858 20.0437 359.115 20.4988C357.402 20.9364 355.901 21.8228 354.611 23.158C353.352 24.4758 352.45 26.1668 351.908 28.2311C351.378 30.2479 351.294 32.2553 351.657 34.2531C352.019 36.2509 352.873 38.0226 354.217 39.5681C355.591 41.0961 357.464 42.172 359.837 42.7956C361.522 43.2384 362.792 43.2299 363.649 42.7701C364.512 42.2866 365.152 41.25 365.57 39.6603C365.894 38.4264 366.035 37.5504 365.994 37.0322C365.983 36.4965 365.726 36.0739 365.224 35.7644C364.746 35.4611 363.842 35.1348 362.513 34.7856C362.371 34.7482 362.325 34.6345 362.375 34.4447C362.393 34.3735 362.421 34.3173 362.457 34.2761C362.523 34.2174 362.58 34.1943 362.627 34.2068C364.447 34.8118 365.926 35.2641 367.065 35.5634C368.18 35.8565 369.364 36.1297 370.617 36.3828C370.664 36.3953 370.69 36.4402 370.695 36.5176C370.73 36.5775 370.742 36.6312 370.729 36.6787C370.685 36.8448 370.604 36.9122 370.486 36.8811C369.899 36.7014 369.462 36.6753 369.174 36.8028C368.894 36.9065 368.646 37.2219 368.431 37.7489C368.217 38.2759 367.931 39.2157 367.576 40.5681C367.295 41.6359 367.131 42.4045 367.084 42.874C367.06 43.3498 367.033 43.647 367.002 43.7656C366.964 43.908 366.916 43.9967 366.856 44.0316C366.796 44.0666 366.677 44.086 366.498 44.0898C363.435 43.9696 360.848 43.632 358.736 43.0769Z" fill="white"/>
<path d="M407.876 36.3707L408.639 36.8221L400.429 52.9221C399.84 54.0815 399.637 55.0058 399.822 55.6947C400.006 56.3837 400.628 56.9849 401.687 57.4984C401.732 57.5198 401.722 57.5968 401.657 57.7292C401.593 57.8617 401.539 57.9172 401.495 57.8958C400.877 57.5963 400.407 57.3553 400.087 57.1727L398.315 56.2731L396.576 55.4718C396.257 55.3441 395.81 55.1411 395.236 54.863C395.192 54.8416 395.202 54.7647 395.266 54.6322C395.33 54.4997 395.384 54.4442 395.428 54.4656C396.356 54.9149 397.136 54.993 397.768 54.6998C398.434 54.3953 399.056 53.6743 399.634 52.537L407.876 36.3707ZM421.028 66.8698C421.094 66.9019 421.095 66.9842 421.031 67.1166C420.967 67.2491 420.901 67.2993 420.835 67.2672C420.151 66.9356 419.615 66.6624 419.229 66.4478L416.959 65.3074L414.824 64.3136C414.46 64.1645 413.958 63.9348 413.318 63.6246C413.273 63.6032 413.283 63.5262 413.348 63.3938C413.412 63.2613 413.466 63.2058 413.51 63.2272C414.261 63.5909 414.84 63.8031 415.246 63.8639C415.686 63.9133 416.036 63.8102 416.296 63.5546C416.578 63.3097 416.858 62.8454 417.134 62.1616L424.256 45.8612L426.087 44.8674L407.8 60.6648C407.713 60.7317 407.603 60.7331 407.471 60.6689C407.361 60.6154 407.283 60.5231 407.237 60.392L407.51 38.6466C407.53 37.6479 407.355 36.8271 406.985 36.1843C406.637 35.5522 406.077 35.049 405.304 34.6746C405.26 34.6532 405.27 34.5762 405.334 34.4438C405.398 34.3113 405.453 34.2558 405.497 34.2772L406.706 34.904C406.916 35.0331 407.22 35.1939 407.617 35.3864C408.015 35.579 408.351 35.7284 408.627 35.8347C408.925 35.9517 409.151 36.0477 409.305 36.1226C409.592 36.2616 409.771 36.4843 409.84 36.7907C409.943 37.0857 409.994 37.6831 409.994 38.5828L409.842 58.1377L407.981 59.3623L425.032 44.7653C425.542 44.331 426.007 44.2155 426.427 44.4188C426.537 44.4722 426.686 44.5582 426.874 44.6765C427.084 44.8056 427.366 44.9557 427.719 45.1269L429.292 45.848C429.545 45.9435 429.915 46.109 430.401 46.3444C430.445 46.3658 430.435 46.4427 430.371 46.5752C430.307 46.7076 430.252 46.7632 430.208 46.7418C429.082 46.1962 428.196 45.9713 427.55 46.0671C426.937 46.1516 426.438 46.646 426.054 47.5506L419.287 63.2047C418.977 63.8998 418.814 64.434 418.797 64.8073C418.801 65.1913 418.965 65.5294 419.287 65.8216C419.608 66.1139 420.189 66.4633 421.028 66.8698Z" fill="white"/>
<path d="M440.913 66.8913L449.06 72.2507L448.871 73.0071L440.201 67.3039L440.913 66.8913ZM450.408 85.6029C450.49 85.6568 450.49 85.7453 450.41 85.8683C450.329 85.9913 450.247 86.0258 450.165 85.9718C449.776 85.7157 449.185 85.2974 448.392 84.7171C447.599 84.1368 447.018 83.7253 446.649 83.4826C446.198 83.186 445.611 82.829 444.887 82.4116C444.204 82.0211 443.688 81.7113 443.34 81.4821C443.258 81.4282 443.257 81.3397 443.338 81.2167C443.419 81.0938 443.501 81.0592 443.583 81.1132C444.361 81.6255 444.962 81.9178 445.384 81.99C445.827 82.0758 446.17 81.9342 446.413 81.5652C446.615 81.2578 446.775 80.7465 446.893 80.0313L449.553 61.1224L450.949 60.6749L435.701 70.8631C434.956 71.3713 434.435 71.8508 434.138 72.3017C433.343 73.511 433.949 74.7763 435.958 76.0976C436.06 76.165 436.071 76.2602 435.99 76.3832C435.909 76.5061 435.818 76.5339 435.715 76.4665C435.346 76.2238 434.827 75.8528 434.157 75.3534C433.405 74.8 432.742 74.3346 432.168 73.9571C431.635 73.6065 431.007 73.2226 430.283 72.8051C429.641 72.4416 429.115 72.1251 428.706 71.8554C428.603 71.788 428.592 71.6928 428.673 71.5698C428.754 71.4469 428.846 71.4191 428.948 71.4865C429.522 71.864 430.071 72.0784 430.595 72.1296C431.154 72.1738 431.782 72.044 432.481 71.7403C433.214 71.4296 434.133 70.9034 435.238 70.1617L451.796 59.1182C451.878 59.0837 451.97 59.1002 452.072 59.1676C452.175 59.235 452.216 59.3062 452.196 59.3812L449.4 79.4341C449.099 81.4092 449.02 82.825 449.161 83.6815C449.316 84.5175 449.732 85.158 450.408 85.6029Z" fill="white"/>
<path d="M472.456 104.195C471.987 103.799 471.762 102.242 471.779 99.5251C471.83 96.8051 472.117 93.2561 472.64 88.8779L474.617 89.7312C474.266 93.451 474.079 96.426 474.056 98.6561C474.068 100.883 474.25 102.644 474.601 103.937C474.953 105.231 475.532 106.219 476.337 106.9C476.393 106.948 476.374 107.027 476.279 107.14C476.184 107.252 476.108 107.285 476.052 107.237L472.456 104.195ZM480.302 80.5616C481.781 81.8134 482.639 83.1171 482.874 84.4727C483.109 85.8283 482.751 87.068 481.8 88.1918C480.96 89.1845 479.902 89.8474 478.624 90.1803C477.362 90.4945 476.028 90.4752 474.624 90.1224C473.254 89.7667 472.007 89.1135 470.883 88.1628C470.771 88.0677 470.373 87.6831 469.69 87.009L464.295 93.3866C463.803 93.9672 463.503 94.4362 463.394 94.7935C463.284 95.1508 463.349 95.5109 463.588 95.8739C463.846 96.2528 464.331 96.7433 465.043 97.3454C465.099 97.3929 465.08 97.4729 464.984 97.5853C464.889 97.6977 464.814 97.7301 464.758 97.6825C464.177 97.1913 463.726 96.7938 463.405 96.4898L461.49 94.8218L459.556 93.2337C459.203 92.9672 458.717 92.5725 458.099 92.0496C458.062 92.0179 458.09 91.9459 458.185 91.8335C458.28 91.7211 458.347 91.6808 458.384 91.7125C459.096 92.3146 459.66 92.7114 460.076 92.903C460.509 93.0758 460.901 93.0866 461.254 92.9353C461.607 92.784 462.021 92.4274 462.497 91.8655L473.501 78.8574C473.976 78.2955 474.259 77.8279 474.35 77.4548C474.46 77.0975 474.385 76.7294 474.127 76.3506C473.904 75.9688 473.436 75.4769 472.725 74.8748C472.669 74.8272 472.688 74.7473 472.783 74.6349C472.878 74.5225 472.954 74.4901 473.01 74.5376L474.363 75.7303C475.118 76.4333 475.739 76.9908 476.226 77.4027C476.638 77.7513 477.03 78.0668 477.401 78.3491C477.773 78.6314 478.089 78.8662 478.348 79.0535C479.107 79.5994 479.759 80.1021 480.302 80.5616ZM479.2 87.3904C480.436 85.9295 480.996 84.6033 480.879 83.4119C480.781 82.2363 480.114 81.1257 478.878 80.0799C478.147 79.4619 477.53 79.1652 477.028 79.1898C476.525 79.2143 475.933 79.6293 475.252 80.4347L470.26 86.3347C470.646 86.7899 471.167 87.2948 471.823 87.8493C473.284 89.0853 474.593 89.6463 475.75 89.5323C476.925 89.4342 478.075 88.7203 479.2 87.3904Z" fill="white"/>
<path d="M495.716 127.675C495.298 127.226 495.258 125.654 495.596 122.958C495.969 120.263 496.673 116.773 497.71 112.487L499.572 113.568C498.784 117.22 498.247 120.152 497.96 122.364C497.709 124.577 497.681 126.347 497.878 127.673C498.074 128.999 498.532 130.048 499.251 130.82C499.301 130.874 499.272 130.951 499.165 131.051C499.057 131.151 498.978 131.175 498.928 131.121L495.716 127.675ZM506.301 105.135C507.622 106.552 508.319 107.948 508.392 109.322C508.465 110.696 507.964 111.885 506.887 112.888C505.935 113.775 504.806 114.308 503.498 114.488C502.207 114.65 500.886 114.474 499.532 113.957C498.214 113.442 497.053 112.646 496.049 111.569C495.949 111.462 495.6 111.033 495.001 110.283L488.89 115.978C488.334 116.496 487.98 116.927 487.829 117.268C487.678 117.61 487.7 117.976 487.895 118.364C488.106 118.771 488.529 119.315 489.165 119.997C489.215 120.051 489.186 120.128 489.079 120.229C488.971 120.329 488.892 120.352 488.842 120.298C488.323 119.742 487.923 119.294 487.639 118.954L485.935 117.072L484.202 115.266C483.883 114.96 483.448 114.51 482.896 113.918C482.862 113.882 482.899 113.814 483.007 113.714C483.115 113.613 483.185 113.581 483.219 113.617C483.854 114.299 484.368 114.76 484.758 114.999C485.167 115.222 485.556 115.279 485.924 115.17C486.292 115.062 486.746 114.757 487.284 114.255L499.749 102.639C500.287 102.137 500.624 101.706 500.758 101.346C500.909 101.004 500.878 100.63 500.667 100.223C500.49 99.8179 500.084 99.2742 499.449 98.5922C499.399 98.5383 499.427 98.4612 499.535 98.3609C499.643 98.2605 499.722 98.2372 499.772 98.2911L500.974 99.6353C501.641 100.423 502.192 101.05 502.626 101.516C502.994 101.911 503.346 102.271 503.682 102.595C504.018 102.919 504.303 103.19 504.539 103.406C505.228 104.038 505.815 104.614 506.301 105.135ZM504.4 111.785C505.8 110.481 506.512 109.23 506.537 108.033C506.578 106.854 506.047 105.672 504.943 104.488C504.291 103.788 503.714 103.42 503.212 103.385C502.709 103.35 502.072 103.692 501.301 104.412L495.647 109.68C495.977 110.178 496.434 110.741 497.02 111.369C498.324 112.769 499.558 113.481 500.72 113.504C501.899 113.546 503.126 112.973 504.4 111.785Z" fill="white"/>
<path d="M510.801 141.6C510.197 142.062 509.803 142.456 509.62 142.782C509.437 143.108 509.423 143.473 509.579 143.879C509.75 144.304 510.119 144.887 510.686 145.627C510.73 145.686 510.694 145.76 510.577 145.849C510.461 145.939 510.38 145.954 510.335 145.896C509.888 145.311 509.539 144.836 509.29 144.471L507.732 142.374L506.159 140.38C505.871 140.044 505.496 139.574 505.034 138.97C504.989 138.912 505.025 138.838 505.142 138.748C505.259 138.659 505.339 138.643 505.384 138.702C505.951 139.442 506.41 139.941 506.761 140.197C507.126 140.473 507.49 140.565 507.853 140.473C508.249 140.386 508.74 140.119 509.324 139.671L522.854 129.315C523.438 128.867 523.814 128.471 523.983 128.126C524.166 127.8 524.172 127.425 524.001 126.999C523.864 126.579 523.513 125.998 522.946 125.258C522.901 125.2 522.937 125.126 523.054 125.036C523.171 124.947 523.252 124.931 523.297 124.99L524.364 126.444C524.951 127.292 525.446 127.979 525.849 128.505C526.296 129.089 526.852 129.776 527.518 130.564L528.598 131.915C528.643 131.974 528.607 132.047 528.49 132.137C528.373 132.226 528.292 132.242 528.248 132.184C527.696 131.463 527.227 130.972 526.842 130.711C526.457 130.449 526.073 130.372 525.691 130.479C525.329 130.571 524.856 130.841 524.271 131.288L510.801 141.6Z" fill="white"/>
<path d="M517.344 155.625C517.318 155.583 517.367 155.523 517.491 155.444C517.615 155.365 517.691 155.347 517.717 155.388C518.216 156.175 518.629 156.712 518.956 156.999C519.296 157.306 519.651 157.43 520.02 157.37C520.422 157.318 520.934 157.095 521.556 156.701L535.945 147.576C536.567 147.182 536.977 146.821 537.175 146.492C537.386 146.183 537.425 145.81 537.292 145.371C537.193 144.94 536.894 144.331 536.395 143.544C536.369 143.502 536.418 143.442 536.542 143.363C536.666 143.285 536.741 143.266 536.768 143.307L544.69 155.801C544.808 155.987 544.774 156.14 544.588 156.258L540.805 158.744C540.742 158.783 540.662 158.748 540.562 158.636C540.496 158.533 540.495 158.461 540.557 158.422C541.615 157.663 542.255 156.793 542.475 155.811C542.715 154.816 542.52 153.822 541.889 152.827L540.687 150.931C540.227 150.206 539.824 149.707 539.476 149.433C539.149 149.147 538.805 149.017 538.444 149.042C538.095 149.089 537.631 149.296 537.051 149.664L522.942 158.611C522.382 158.966 521.997 159.297 521.786 159.606C521.608 159.921 521.573 160.278 521.68 160.675C521.786 161.072 522.063 161.623 522.51 162.328L524.086 164.814C524.717 165.808 525.595 166.414 526.719 166.63C527.844 166.846 529.101 166.674 530.488 166.114C530.53 166.088 530.577 166.116 530.629 166.199C530.669 166.261 530.681 166.326 530.666 166.394C530.684 166.469 530.683 166.513 530.663 166.526C529.239 167.167 527.812 167.941 526.383 168.848C526.217 168.953 526.067 168.99 525.931 168.96C525.83 168.937 525.72 168.833 525.601 168.646L517.344 155.625ZM531.739 162.314C532.651 161.736 533.159 161.094 533.263 160.389C533.381 159.704 533.111 158.844 532.455 157.808L529.498 153.146L530.151 152.732L533.166 157.487C533.797 158.482 534.409 159.081 535.004 159.285C535.611 159.51 536.308 159.373 537.096 158.874C537.137 158.847 537.197 158.896 537.276 159.021C537.355 159.145 537.374 159.22 537.332 159.246L534.795 160.812C534.194 161.193 533.745 161.492 533.447 161.71L531.975 162.687C531.934 162.713 531.874 162.664 531.795 162.54C531.716 162.416 531.698 162.34 531.739 162.314Z" fill="white"/>
<path d="M536.066 188.321C535.754 187.681 535.427 186.927 535.084 186.057C534.955 185.737 534.783 185.33 534.569 184.834C534.365 184.36 534.123 183.837 533.843 183.263L532.712 181.031C532.496 180.645 532.216 180.099 531.872 179.394C531.85 179.349 531.906 179.295 532.038 179.23C532.17 179.166 532.247 179.156 532.269 179.2C532.678 180.038 533.029 180.617 533.322 180.938C533.626 181.281 533.964 181.443 534.338 181.425C534.744 181.418 535.277 181.253 535.939 180.93L551.25 173.455C551.911 173.132 552.364 172.829 552.608 172.546C552.852 172.263 552.933 171.896 552.849 171.446C552.798 171.006 552.569 170.368 552.16 169.53C552.138 169.486 552.193 169.432 552.326 169.367C552.458 169.302 552.535 169.292 552.556 169.336L553.331 171.006C553.738 171.953 554.077 172.703 554.346 173.254C554.755 174.092 555.192 174.902 555.656 175.686C556.174 176.634 556.524 177.296 556.707 177.671C557.826 179.963 558.376 182.207 558.355 184.401C558.334 186.595 557.8 188.549 556.752 190.262C555.715 191.996 554.249 193.327 552.353 194.252C550.214 195.296 548.071 195.715 545.922 195.508C543.806 195.312 541.877 194.575 540.133 193.297C538.412 192.008 537.056 190.349 536.066 188.321ZM536.401 187.748C537.262 189.512 538.39 190.899 539.785 191.911C541.201 192.912 542.809 193.437 544.608 193.487C546.44 193.549 548.37 193.084 550.398 192.094C552.316 191.158 553.88 189.944 555.091 188.452C556.301 186.96 557.029 185.321 557.277 183.535C557.524 181.749 557.217 179.974 556.356 178.21C555.893 177.262 555.478 176.551 555.109 176.076C554.751 175.622 554.348 175.355 553.899 175.274C553.45 175.193 552.895 175.314 552.233 175.637L537.352 182.902C536.691 183.225 536.215 183.566 535.927 183.925C535.649 184.306 535.534 184.799 535.584 185.403C535.666 186.018 535.938 186.8 536.401 187.748Z" fill="white"/>
</svg>
